<svg width="20" height="20" viewBox="0 0 20 20" fill="none" xmlns="http://www.w3.org/2000/svg">
<g clip-path="url(#clip0)">
<path d="M15.5559 9.2196L6.65564 0.31951C6.44979 0.113495 6.17499 0 5.88199 0C5.58898 0 5.31419 0.113495 5.10834 0.31951L4.45289 0.974789C4.02639 1.40178 4.02639 2.09576 4.45289 2.52209L11.9267 9.99585L4.4446 17.4779C4.23875 17.6839 4.12509 17.9586 4.12509 18.2514C4.12509 18.5446 4.23875 18.8192 4.4446 19.0254L5.10004 19.6805C5.30606 19.8865 5.58069 20 5.8737 20C6.1667 20 6.4415 19.8865 6.64735 19.6805L15.5559 10.7723C15.7622 10.5656 15.8756 10.2897 15.8749 9.99634C15.8756 9.70187 15.7622 9.4261 15.5559 9.2196Z" fill="white"/>
</g>
<defs>
<clipPath id="clip0">
<rect width="20" height="20" fill="white" transform="translate(20) rotate(90)"/>
</clipPath>
</defs>
</svg>
