<svg width="25" height="25" viewBox="0 0 25 25" fill="none" xmlns="http://www.w3.org/2000/svg">
<path d="M16.5719 12.6281L25 17.9562V7.07495L16.5719 12.6281Z" fill="black"/>
<path d="M0 7.07495V17.9562L8.42813 12.6281L0 7.07495Z" fill="black"/>
<path d="M23.4375 3.90625H1.56247C0.782782 3.90625 0.164032 4.4875 0.0468445 5.23594L12.5 13.4406L24.9531 5.23594C24.8359 4.4875 24.2172 3.90625 23.4375 3.90625Z" fill="black"/>
<path d="M15.1406 13.5719L12.9297 15.0281C12.7985 15.1141 12.65 15.1562 12.5 15.1562C12.35 15.1562 12.2016 15.1141 12.0703 15.0281L9.85939 13.5703L0.0500183 19.775C0.170331 20.5172 0.785956 21.0938 1.56252 21.0938H23.4375C24.2141 21.0938 24.8297 20.5172 24.95 19.775L15.1406 13.5719Z" fill="black"/>
</svg>
