<svg width="40" height="40" viewBox="0 0 40 40" fill="none" xmlns="http://www.w3.org/2000/svg">
<path d="M20 0C9.01489 0 0 9.01489 0 20C0 29.3741 6.57776 37.8894 15.3125 40V33.3832C14.447 33.5727 13.6505 33.5782 12.7695 33.3185C11.5875 32.9697 10.6271 32.1823 9.91425 30.9818C9.45984 30.2151 8.65448 29.3839 7.81433 29.4449L7.60834 27.1103C9.42505 26.9547 10.9967 28.2172 11.9296 29.7845C12.3441 30.4816 12.821 30.8902 13.4332 31.0709C14.025 31.2451 14.6603 31.1615 15.4007 30.9C15.5865 29.4177 16.2656 28.8629 16.7786 28.0817V28.0804C11.5692 27.3035 9.4931 24.5398 8.66913 22.3584C7.57721 19.462 8.16315 15.8435 10.094 13.5568C10.1315 13.5123 10.1993 13.3957 10.173 13.3142C9.28772 10.64 10.3665 8.42773 10.4062 8.19305C11.4279 8.49518 11.5939 7.8891 14.8444 9.86389L15.4062 10.2014C15.6412 10.3415 15.5673 10.2615 15.8023 10.2438C17.1594 9.87518 18.5901 9.67163 19.9997 9.65332C21.42 9.67163 22.8415 9.87518 24.2548 10.2588L24.4366 10.2771C24.4208 10.2747 24.4861 10.2655 24.5956 10.2002C28.656 7.74078 28.5101 8.54462 29.599 8.19061C29.6384 8.4256 30.7028 10.6738 29.827 13.3142C29.7089 13.678 33.3472 17.0096 31.3306 22.3575C30.5066 24.5398 28.4308 27.3035 23.2214 28.0804V28.0817C23.8892 29.0994 24.6915 29.6408 24.6872 31.7404V40C33.4222 37.8894 39.9997 29.3741 39.9997 20C40 9.01489 30.9851 0 20 0V0Z" fill="#FCA311"/>
</svg>
