<svg width="25" height="25" viewBox="0 0 25 25" fill="none" xmlns="http://www.w3.org/2000/svg">
<path d="M24.5732 11.3804L20.7855 7.59156V3.21477C20.7855 2.42339 20.1443 1.78203 19.352 1.78203C18.5615 1.78203 17.9204 2.42339 17.9204 3.21477V4.72573L15.1001 1.90451C13.7058 0.51048 11.2814 0.512953 9.89019 1.90703L0.419374 11.3804C-0.13971 11.9408 -0.13971 12.8475 0.419374 13.407C0.978709 13.9672 1.8869 13.9672 2.44604 13.407L11.9159 3.93333C12.2245 3.62636 12.7682 3.62636 13.0751 3.93243L22.5466 13.407C22.8275 13.6871 23.1936 13.8264 23.5597 13.8264C23.9265 13.8264 24.2933 13.687 24.5733 13.407C25.1326 12.8475 25.1326 11.9408 24.5732 11.3804Z" fill="black"/>
<path d="M12.9952 6.65297C12.72 6.37788 12.2744 6.37788 11.9999 6.65297L3.66693 14.9835C3.53537 15.115 3.46078 15.2946 3.46078 15.4819V21.5579C3.46078 22.9837 4.61683 24.1397 6.04255 24.1397H10.1682V17.7504H14.826V24.1397H18.9518C20.3774 24.1397 21.5335 22.9837 21.5335 21.558V15.4819C21.5335 15.2946 21.4595 15.115 21.3273 14.9835L12.9952 6.65297Z" fill="black"/>
</svg>
