<svg width="40" height="40" viewBox="0 0 40 40" fill="none" xmlns="http://www.w3.org/2000/svg">
<g clip-path="url(#clip0)">
<path d="M37.8064 5.75186C36.3998 4.34428 34.4914 3.55373 32.5015 3.5544C30.5125 3.54971 28.604 4.34001 27.2005 5.74943L17.5166 15.4334C15.6006 17.3525 14.8681 20.1555 15.6004 22.7665C15.8149 23.5266 16.6049 23.969 17.365 23.7546C18.1252 23.5402 18.5676 22.7502 18.3532 21.99C17.9017 20.3753 18.3547 18.6426 19.5386 17.4555L29.2225 7.77293C31.033 5.962 33.9688 5.96166 35.7798 7.77226C37.5907 9.58278 37.591 12.5186 35.7805 14.3295L26.0966 24.0134C25.462 24.6489 24.656 25.0857 23.7772 25.2704C23.004 25.4314 22.5077 26.1887 22.6686 26.9619C22.8071 27.6268 23.394 28.1025 24.0731 28.1004C24.1731 28.1005 24.2728 28.0899 24.3706 28.069C25.7909 27.7695 27.0932 27.0629 28.1186 26.0355L37.8026 16.353C40.731 13.4266 40.7327 8.68037 37.8064 5.75186Z" fill="#FCA311"/>
<path d="M24.3577 17.2725C24.1432 16.5124 23.3532 16.0699 22.5931 16.2844C21.8329 16.4988 21.3905 17.2888 21.6049 18.049C22.0564 19.6637 21.6034 21.3963 20.4195 22.5835L10.7355 32.2675C8.92497 34.0784 5.98916 34.0787 4.17823 32.2681C2.3673 30.4576 2.36696 27.5218 4.17748 25.7109L13.8615 16.0255C14.4951 15.3902 15.3001 14.9534 16.1781 14.7685C16.9525 14.6135 17.4548 13.8602 17.2999 13.0858C17.1449 12.3114 16.3916 11.8091 15.6172 11.964C15.6077 11.966 15.5984 11.9679 15.589 11.97C14.1684 12.2699 12.8657 12.9764 11.8395 14.0035L2.15548 23.6875C-0.749993 26.6378 -0.713629 31.3848 2.23667 34.2902C5.15479 37.1639 9.83894 37.1643 12.7575 34.2909L22.4414 24.6055C24.3575 22.6864 25.09 19.8834 24.3577 17.2725Z" fill="#FCA311"/>
</g>
<defs>
<clipPath id="clip0">
<rect width="40" height="40" fill="white"/>
</clipPath>
</defs>
</svg>
