<svg width="25" height="25" viewBox="0 0 25 25" fill="none" xmlns="http://www.w3.org/2000/svg">
<g clip-path="url(#clip0)">
<path d="M24.3196 18.3475L20.8307 14.8587C19.5847 13.6126 17.4665 14.1111 16.9681 15.7309C16.5943 16.8523 15.3483 17.4753 14.2269 17.2261C11.7349 16.6031 8.37065 13.3634 7.74764 10.7468C7.37384 9.62537 8.12145 8.37936 9.24286 8.00561C10.8627 7.5072 11.3611 5.38899 10.1151 4.14298L6.62624 0.654155C5.62943 -0.218052 4.13422 -0.218052 3.26201 0.654155L0.894597 3.02157C-1.47282 5.51359 1.1438 12.1174 7.00004 17.9737C12.8563 23.8299 19.4601 26.5712 21.9521 24.0791L24.3196 21.7117C25.1918 20.7149 25.1918 19.2197 24.3196 18.3475Z" fill="black"/>
</g>
<defs>
<clipPath id="clip0">
<rect width="25" height="25" fill="white"/>
</clipPath>
</defs>
</svg>
